<svg xmlns="http://www.w3.org/2000/svg" fill="none" viewBox="0 0 128 128">
    <path fill-rule="evenodd" clip-rule="evenodd" d="M29.5726 33.8439C34.9109 32.2054 41.768 31.582 50.14 31.582C58.512 31.582 65.369 32.2054 70.7074 33.8439C75.6061 35.3475 79.3757 37.7564 81.8005 41.4344C83.1804 41.6084 84.6209 42.1473 85.5574 43.7082C86.0819 44.5825 86.3201 45.5918 86.4488 46.5836C86.5798 47.5939 86.6203 48.7915 86.6203 50.1651C86.6203 52.5491 86.2358 54.2807 85.6149 55.5067C85.3705 55.9892 85.0761 56.4188 84.7322 56.7754C84.0012 63.3871 81.0197 67.4222 77.6259 69.772C74.1546 72.1755 70.4885 72.6582 68.9841 72.7244C63.3709 72.9716 59.2696 70.5908 56.2007 68.4147C55.4893 67.9102 54.8928 67.4637 54.3496 67.0571C53.6232 66.5133 52.9921 66.0408 52.3085 65.5963C51.1768 64.8604 50.5389 64.6609 50.14 64.6609C49.741 64.6609 49.1032 64.8604 47.9714 65.5963C47.2879 66.0408 46.6567 66.5133 45.9303 67.0571C45.3871 67.4637 44.7907 67.9102 44.0793 68.4147C41.0104 70.5908 36.9091 72.9716 31.2959 72.7244C29.7915 72.6582 26.1254 72.1755 22.6541 69.772C19.2603 67.4222 16.2788 63.3871 15.5478 56.7754C15.2039 56.4188 14.9095 55.9892 14.6651 55.5067C14.0441 54.2807 13.6596 52.5491 13.6596 50.1651C13.6596 48.7915 13.7001 47.5939 13.8312 46.5836C13.9599 45.5918 14.198 44.5825 14.7226 43.7082C15.6591 42.1473 17.0996 41.6084 18.4795 41.4344C20.9043 37.7564 24.6738 35.3475 29.5726 33.8439ZM30.9685 38.392C26.3723 39.8028 23.5613 41.9349 21.9577 44.8752C20.7764 47.0414 20.1341 49.8524 20.1341 53.5492C20.1341 54.1542 20.1536 54.7317 20.1906 55.2829C20.5884 61.2027 23.0058 64.229 25.3622 65.8605C27.8375 67.5743 30.5185 67.9281 31.5052 67.9715C35.5346 68.1489 38.5591 66.4968 41.3274 64.5338C41.8066 64.1941 42.3303 63.8043 42.8632 63.4077C43.7271 62.7648 44.6154 62.1038 45.3779 61.6079C46.6739 60.7652 48.2951 59.9034 50.14 59.9034C51.9849 59.9034 53.6061 60.7652 54.9021 61.6079C55.6646 62.1038 56.5528 62.7648 57.4167 63.4077C57.9497 63.8043 58.4734 64.1941 58.9526 64.5338C61.7208 66.4968 64.7454 68.1489 68.7748 67.9715C69.7615 67.9281 72.4425 67.5743 74.9177 65.8605C77.2742 64.229 79.6915 61.2027 80.0893 55.2829C80.1264 54.7317 80.1459 54.1542 80.1459 53.5492C80.1459 49.8524 79.5036 47.0414 78.3222 44.8752C76.7186 41.9349 73.9077 39.8028 69.3114 38.392C64.6561 36.9631 58.3635 36.3395 50.14 36.3395C41.9165 36.3395 35.6238 36.9631 30.9685 38.392Z" fill="black"/><path fill-rule="evenodd" clip-rule="evenodd" d="M39.8623 38.977C39.8623 38.6646 39.5927 38.4201 39.282 38.4533C36.2276 38.779 33.6309 39.2707 31.4443 39.9419C27.1192 41.2694 24.7237 43.1897 23.3811 45.6515C22.3674 47.5102 21.7553 50.0318 21.7553 53.5492C21.7553 54.1194 21.7737 54.6606 21.8082 55.1742C22.1741 60.6197 24.3494 63.1874 26.2851 64.5276C28.4206 66.0062 30.7657 66.3162 31.5765 66.3519C35.0661 66.5055 37.7237 65.1017 40.3896 63.2113C40.7628 62.9468 41.2362 62.5953 41.7362 62.224L41.7365 62.2238L41.7443 62.218C42.6811 61.5224 43.7146 60.7556 44.4941 60.2488C45.8445 59.3706 47.8014 58.2822 50.14 58.2822C52.4786 58.2822 54.4354 59.3706 55.7859 60.2488C56.5653 60.7556 57.5988 61.5224 58.5357 62.218L58.5435 62.2238L58.5439 62.2241L58.5439 62.2241C59.0439 62.5953 59.5173 62.9468 59.8903 63.2113C62.5562 65.1017 65.2139 66.5055 68.7035 66.3519C69.5142 66.3162 71.8593 66.0062 73.9948 64.5276C75.9306 63.1874 78.1058 60.6197 78.4717 55.1742C78.5062 54.6605 78.5247 54.1193 78.5247 53.5492C78.5247 50.0318 77.9126 47.5102 76.8989 45.6515C75.5563 43.1897 73.1607 41.2694 68.8357 39.9419C66.4651 39.2143 63.6126 38.6975 60.2172 38.3746C59.9367 38.3479 59.6948 38.5692 59.6948 38.851V38.851C59.6948 39.0789 59.8551 39.2751 60.0779 39.3234C64.0715 40.1899 67.3086 41.6288 68.7904 43.6399C69.3119 44.3476 69.2254 45.6127 68.3482 45.5546C67.9686 45.5294 67.4757 45.3631 66.7685 45.1246C64.5104 44.3629 60.0665 42.864 50.14 42.864C40.2135 42.864 35.7695 44.3629 33.5115 45.1246C32.8042 45.3631 32.3114 45.5294 31.9318 45.5546C31.0546 45.6127 30.9681 44.3476 31.4896 43.6399C32.8773 41.7564 35.8048 40.3749 39.4513 39.4953C39.6912 39.4374 39.8623 39.2238 39.8623 38.977V38.977Z" fill="black"/>
    <style>
        path { fill: #000; }
        @media (prefers-color-scheme: dark) {
            path { fill: #FFF; }
        }
    </style>
</svg>
